<svg xmlns="http://www.w3.org/2000/svg" viewBox="0 0 48 48">
  <path fill="#1976D2" d="M45,35c0,2.209-1.791,4-4,4H7c-2.209,0-4-1.791-4-4V13c0-2.209,1.791-4,4-4h34c2.209,0,4,1.791,4,4V35z"/>
  <path fill="#FFFFFF" d="M22.255 20.192h3.298v1.105h-4.631v-6.875h4.631v1.105h-3.298v1.784h3.218v1.041h-3.218v1.84zM33.395 14.417h1.388l3.166 6.876h-1.418l-.718-1.633h-3.479l-.711 1.633h-1.39l3.162-6.876zm1.518 4.137l-1.124-2.585h-.018l-1.132 2.585h2.274zM29.925 16.114c0 .968-.675 1.463-1.388 1.463h-1.9v1.717h-1.314v-4.877h3.218c.749 0 1.384.544 1.384 1.445v.252zm-1.269.13c0-.252-.175-.464-.454-.464h-1.565v.942h1.556c.283-.001.463-.189.463-.478zM13.673 21.299v-6.876h3.814c.826 0 1.465.38 1.465 1.261v1.068c0 .586-.302.981-.781 1.156.586.121 1.022.5 1.022 1.229v.967c0 .862-.6 1.195-1.502 1.195h-4.018zm1.369-4.482h2.111c.304 0 .477-.176.477-.432v-.432c0-.256-.173-.433-.477-.433h-2.111v1.297zm0 3.376h2.185c.304 0 .521-.13.521-.478v-.511c0-.35-.217-.478-.521-.478h-2.185v1.467z"/>
  <path fill="#FFFFFF" d="M37.5 28.885c0 .175-.129.314-.29.314h-3.506v-1.582h3.533c.161 0 .263.129.263.288v.98zm-3.796-6.37h3.091c.175 0 .315.129.315.288v.979c0 .174-.14.313-.315.313h-3.091v-1.58zm-1.079 7.847h-2.285c-.129-.007-.234-.104-.241-.233l-.841-2.098h-.077l-1.611 2.322c-.042.063-.111.1-.186.1h-1.809l2.261-2.944-2.203-2.826h1.904c.07.012.185.1.197.162l1.412 2.102h.092l.92-2.082c.029-.063.092-.183.23-.183h1.934l-2.051 2.791 2.344 2.889zm-7.542-5.77h-4.027v-1.162h4.216v-1.073h-4.216v-1.006h4.288v-1.152h-5.678v5.552h5.417v-1.159zm15.368-.296h-.935v.483h.961c.186 0 .315-.09.315-.245 0-.156-.13-.238-.341-.238zm1.034-.975c0-.171-.145-.318-.32-.318h-.905v.587h.913c.191 0 .312-.077.312-.269zm-1.649-1.4h2.05c.914 0 1.5.419 1.5 1.171 0 .457-.259.815-.649.962v.027c.483.104.826.535.826 1.09 0 .86-.696 1.319-1.7 1.319h-2.026v-4.569zm-2.808.001v4.57h1.4v-4.57h-1.4zm-9.471 0h1.855c1.941 0 3.268 1.261 3.268 3.108 0 1.848-1.327 3.108-3.268 3.108h-1.855v-6.216zm1.742 4.48c1.051 0 1.662-.736 1.662-1.878 0-1.141-.611-1.875-1.662-1.875h-.342v3.753h.342zm-9.381-.718c-.687 0-1.208.523-1.208 1.227 0 .692.521 1.218 1.208 1.218.688 0 1.211-.525 1.211-1.218 0-.704-.522-1.227-1.211-1.227zm0-1.115c1.348 0 2.427 1.013 2.427 2.342 0 1.328-1.079 2.333-2.427 2.333-1.348 0-2.422-1.005-2.422-2.333 0-1.329 1.074-2.342 2.422-2.342z"/>
</svg>