<svg xmlns="http://www.w3.org/2000/svg" viewBox="0 0 48 48">
  <path fill="#E1E7EA" d="M45,35c0,2.2-1.8,4-4,4H7c-2.2,0-4-1.8-4-4V13c0-2.2,1.8-4,4-4h34c2.2,0,4,1.8,4,4V35z"/>
  <path fill="#FF6D00" d="M45,35c0,2.2-1.8,4-4,4H16c0,0,23.3-3.8,29-15V35z"/>
  <path fill="#000001" d="M 11.1 21.3 C 11.8 21.3 12.4 21.5 12.9 22.1 L 12.6 22.4 C 12.1 21.9 11.6 21.7 11.1 21.7 C 9.9 21.7 9 22.7 9 24 C 9 25.3 9.9 26.3 11.1 26.3 C 11.7 26.3 12.2 26.1 12.6 25.6 L 12.9 25.9 C 12.4 26.5 11.8 26.7 11.1 26.7 C 9.7 26.7 8.5 25.5 8.5 24 C 8.5 22.5 9.7 21.3 11.1 21.3 Z"/>
  <path fill="#000001" d="M 13.5 21.4 L 15.3 21.4 C 16.5 21.4 17.2 22.1 17.2 23.1 C 17.2 24.1 16.5 24.9 15.3 24.9 L 14.1 24.9 L 14.1 26.6 L 13.5 26.6 Z M 15.2 24.4 C 16.1 24.4 16.6 23.9 16.6 23.1 C 16.6 22.4 16.1 21.8 15.2 21.8 L 14.1 21.8 L 14.1 24.4 Z"/>
  <path fill="#000001" d="M 18.5 26.6 L 17.9 26.6 L 17.9 21.4 L 18.5 21.4 Z"/>
  <path fill="#000001" d="M 19.4 24 C 19.4 22.4 20.7 21.3 22.2 21.3 C 22.9 21.3 23.5 21.5 23.9 22 L 23.7 22.5 C 23.2 22 22.8 21.8 22.2 21.8 C 21 21.8 20 22.7 20 24 C 20 25.3 21 26.2 22.2 26.2 C 22.8 26.2 23.2 26 23.7 25.6 L 24 26 C 23.5 26.5 22.9 26.7 22.2 26.7 C 20.7 26.7 19.4 25.6 19.4 24 Z"/>
  <path fill="#000001" d="M 27.4 24.3 L 24.9 24.3 L 24.9 26.6 L 24.3 26.6 L 24.3 21.4 L 24.9 21.4 L 24.9 23.8 L 27.4 23.8 L 27.4 21.4 L 28 21.4 L 28 26.6 L 27.4 26.6 Z"/>
  <path fill="#000001" d="M 29 24 C 29 22.5 30.2 21.3 31.6 21.3 C 33 21.3 34.3 22.5 34.3 24 C 34.3 25.5 33 26.7 31.6 26.7 C 30.2 26.7 29 25.5 29 24 Z M 33.7 24 C 33.7 22.7 32.8 21.7 31.6 21.7 C 30.4 21.7 29.6 22.7 29.6 24 C 29.6 25.3 30.5 26.3 31.6 26.3 C 32.8 26.3 33.7 25.3 33.7 24 Z"/>
  <path fill="#000001" d="M 39.8 21.4 L 39.8 26.6 L 39.3 26.6 L 39.3 22.3 L 37.2 26.6 L 36.8 26.6 L 34.7 22.3 L 34.7 26.6 L 34.1 26.6 L 34.1 21.4 L 34.9 21.4 L 37 25.8 L 39.1 21.4 Z"/>
</svg>