<svg xmlns="http://www.w3.org/2000/svg" viewBox="0 0 48 48">
  <path fill="#3F51B5" d="M45,35c0,2.209-1.791,4-4,4H7c-2.209,0-4-1.791-4-4V13c0-2.209,1.791-4,4-4h34c2.209,0,4,1.791,4,4V35z"/>
  <path fill="#FFC107" d="M30,24c0,3.314-2.686,6-6,6s-6-2.686-6-6s2.686-6,6-6S30,20.686,30,24z"/>
  <path fill="#FF3D00" d="M22.5,24c0,3.314-2.686,6-6,6s-6-2.686-6-6s2.686-6,6-6S22.5,20.686,22.5,24z"/>
  <path fill="#FFFFFF" opacity="0.25" d="M23.83,29.5c-0.717,0.326-1.508,0.5-2.33,0.5c-3.314,0-6-2.686-6-6 c0-2.244,1.23-4.2,3.054-5.236C17.613,18.275,16.837,18,16,18c-3.314,0-6,2.686-6,6s2.686,6,6,6c1.53,0,2.921-0.575,3.98-1.516 C20.6,28.792,21.086,29,21.5,29C22.36,29,23.159,29.327,23.83,29.5z"/>
</svg>