<svg xmlns="http://www.w3.org/2000/svg" viewBox="0 0 48 48">
  <path fill="#1565C0" d="M45,35c0,2.209-1.791,4-4,4H7c-2.209,0-4-1.791-4-4V13c0-2.209,1.791-4,4-4h34c2.209,0,4,1.791,4,4V35z"/>
  <path fill="#FFFFFF" d="M15.186 19l-2.626 7.832c0 0-0.667-3.313-0.733-3.729-1.495-3.411-3.701-3.221-3.701-3.221l2.848 9.832 3.394-0.014L19.5 19H15.186zM17.689 30.501l1.992-5.834c0 0 0.433-1.111 0.575-1.178 0.142-0.067 0.494-0.155 0.95-0.155 0.456 0 4.641 0 4.641 0l-3.459 7.169h-4.699zM34.693 19H31.72l-6.916 11.498h4.134l0.965-1.463h2.377l0.125 1.463h3.651L34.693 19zM31.139 25.997l1.973-3.324 0.258 3.324h-2.231z"/>
  <path fill="#FFC107" d="M17 20L22.053 20 22.053 21.016 18.92 21.016 18.92 22.745 21.926 22.745 21.926 23.762 18.92 23.762 18.92 25.764 22.053 25.764 22.053 26.78 17 26.78z"/>
</svg>